<?xml version="1.0" encoding="utf-8"?>
<!-- Generator: Adobe Illustrator 26.0.0, SVG Export Plug-In . SVG Version: 6.00 Build 0)  -->
<svg version="1.1" id="图层_1" xmlns="http://www.w3.org/2000/svg" xmlns:xlink="http://www.w3.org/1999/xlink" x="0px" y="0px"
	 viewBox="0 0 340.7 85" style="enable-background:new 0 0 340.7 85;" xml:space="preserve">
<style type="text/css">
	.st0{fill:#00ADEE;}
	.st1{fill:#F05A27;}
</style>
<path d="M109.5,52.8l-1.3-3.3H97.5l-1.3,3.4c-0.5,1.3-0.9,2.2-1.3,2.7c-0.3,0.5-0.9,0.7-1.7,0.7c-0.7,0-1.3-0.2-1.8-0.7
	s-0.8-1.1-0.8-1.7c0-0.4,0.1-0.7,0.2-1.1s0.3-0.9,0.6-1.6L98.2,34c0.2-0.5,0.4-1.1,0.7-1.8c0.3-0.7,0.6-1.3,0.9-1.7
	c0.3-0.5,0.7-0.8,1.2-1.1c0.5-0.3,1.1-0.4,1.9-0.4c0.7,0,1.4,0.1,1.9,0.4s0.9,0.6,1.2,1.1s0.6,0.9,0.8,1.4c0.2,0.5,0.5,1.2,0.8,2.1
	l6.9,17.1c0.5,1.3,0.8,2.2,0.8,2.8s-0.3,1.2-0.8,1.7s-1.1,0.8-1.9,0.8c-0.4,0-0.8-0.1-1.1-0.2c-0.3-0.2-0.6-0.4-0.8-0.6
	c-0.2-0.3-0.4-0.7-0.7-1.2C109.9,53.6,109.7,53.2,109.5,52.8z M98.9,45.4h7.9l-4-10.9L98.9,45.4z"/>
<path d="M129.4,45.4h-4.9v7.5c0,1.1-0.3,1.9-0.8,2.4c-0.5,0.6-1.1,0.8-1.9,0.8s-1.5-0.3-2-0.8s-0.7-1.4-0.7-2.4V32.6
	c0-1.2,0.3-2,0.8-2.5s1.4-0.8,2.6-0.8h6.9c2,0,3.6,0.2,4.7,0.5c1.1,0.3,2,0.8,2.8,1.5s1.4,1.6,1.8,2.6c0.4,1,0.6,2.1,0.6,3.4
	c0,2.7-0.8,4.7-2.5,6.1S132.7,45.4,129.4,45.4z M128.1,33.3h-3.6v8.1h3.6c1.3,0,2.3-0.1,3.2-0.4c0.8-0.3,1.5-0.7,1.9-1.3
	s0.7-1.4,0.7-2.4c0-1.2-0.3-2.1-1-2.9C132.1,33.7,130.5,33.3,128.1,33.3z"/>
<path class="st0" d="M141.2,56.2c-0.7,0-1.4-0.2-1.9-0.7s-0.8-1.2-0.8-2c0-0.7,0.3-1.4,0.8-1.9s1.2-0.8,1.9-0.8
	c0.8,0,1.4,0.3,1.9,0.8s0.8,1.2,0.8,1.9c0,0.9-0.3,1.5-0.8,2C142.6,56,141.9,56.2,141.2,56.2z"/>
<path d="M166.8,52.8l-1.3-3.3h-10.8l-1.3,3.4c-0.5,1.3-0.9,2.2-1.3,2.7c-0.3,0.5-0.9,0.7-1.7,0.7c-0.7,0-1.3-0.2-1.8-0.7
	s-0.8-1.1-0.8-1.7c0-0.4,0.1-0.7,0.2-1.1c0.1-0.4,0.3-0.9,0.6-1.6l6.8-17.2c0.2-0.5,0.4-1.1,0.7-1.8s0.6-1.3,0.9-1.7
	s0.7-0.8,1.2-1.1s1.1-0.4,1.9-0.4c0.7,0,1.4,0.1,1.9,0.4s0.9,0.6,1.2,1.1c0.3,0.4,0.6,0.9,0.8,1.4c0.2,0.5,0.5,1.2,0.8,2.1l6.9,17.1
	c0.5,1.3,0.8,2.2,0.8,2.8s-0.3,1.2-0.8,1.7s-1.1,0.8-1.9,0.8c-0.4,0-0.8-0.1-1.1-0.2s-0.6-0.4-0.8-0.6c-0.2-0.3-0.4-0.7-0.7-1.2
	C167.2,53.6,167,53.2,166.8,52.8z M156.2,45.4h7.9l-4-10.9L156.2,45.4z"/>
<path d="M183.7,44.4h-1.9v8.5c0,1.1-0.2,1.9-0.7,2.5c-0.5,0.5-1.1,0.8-1.9,0.8c-0.9,0-1.5-0.3-2-0.8c-0.5-0.6-0.7-1.4-0.7-2.4V32.6
	c0-1.2,0.3-2,0.8-2.5s1.4-0.8,2.5-0.8h8.7c1.2,0,2.2,0.1,3.1,0.2c0.9,0.1,1.6,0.3,2.3,0.6c0.8,0.3,1.6,0.8,2.2,1.5
	c0.6,0.7,1.1,1.4,1.5,2.3s0.5,1.8,0.5,2.7c0,2-0.6,3.6-1.7,4.7c-1.1,1.2-2.8,2-5.1,2.5c1,0.5,1.9,1.3,2.7,2.2c0.9,1,1.6,2,2.3,3.2
	c0.7,1.1,1.2,2.1,1.6,3s0.6,1.5,0.6,1.9c0,0.3-0.1,0.7-0.3,1s-0.5,0.6-0.9,0.8s-0.8,0.3-1.3,0.3c-0.6,0-1.1-0.1-1.5-0.4
	c-0.4-0.3-0.8-0.6-1.1-1.1c-0.3-0.4-0.7-1.1-1.2-1.9l-2.1-3.6c-0.8-1.3-1.5-2.3-2.1-3s-1.2-1.2-1.9-1.4
	C185.4,44.6,184.6,44.4,183.7,44.4z M186.8,33.3h-4.9v7.3h4.8c1.3,0,2.4-0.1,3.3-0.3c0.9-0.2,1.6-0.6,2-1.1c0.5-0.5,0.7-1.3,0.7-2.2
	c0-0.7-0.2-1.4-0.6-1.9c-0.4-0.6-0.9-1-1.6-1.3C189.8,33.4,188.6,33.3,186.8,33.3z"/>
<path class="st1" d="M206,56.2c-0.7,0-1.4-0.2-1.9-0.7s-0.8-1.2-0.8-2c0-0.7,0.3-1.4,0.8-1.9s1.2-0.8,1.9-0.8s1.4,0.3,1.9,0.8
	s0.8,1.2,0.8,1.9c0,0.9-0.3,1.5-0.8,2S206.7,56.2,206,56.2z"/>
<path d="M226,55.8h-8.1c-1.2,0-2-0.3-2.5-0.8s-0.7-1.4-0.7-2.5V32.6c0-1.2,0.3-2,0.8-2.5s1.3-0.8,2.5-0.8h8.6c1.3,0,2.4,0.1,3.3,0.2
	s1.8,0.5,2.5,0.9c0.6,0.4,1.2,0.8,1.7,1.4c0.5,0.6,0.8,1.2,1.1,1.9s0.4,1.4,0.4,2.2c0,2.6-1.3,4.6-4,5.8c3.5,1.1,5.2,3.3,5.2,6.5
	c0,1.5-0.4,2.8-1.1,4c-0.8,1.2-1.8,2.1-3.1,2.6c-0.8,0.3-1.7,0.6-2.8,0.7C228.6,55.7,227.4,55.8,226,55.8z M220,33.3v6.8h4.9
	c1.3,0,2.4-0.1,3.1-0.4c0.7-0.3,1.3-0.7,1.7-1.4c0.3-0.5,0.5-1.1,0.5-1.7c0-1.3-0.5-2.2-1.4-2.7s-2.4-0.7-4.4-0.7H220V33.3z
	 M225.6,44H220v7.7h5.8c3.6,0,5.4-1.3,5.4-3.9c0-1.3-0.5-2.3-1.4-2.9C228.8,44.3,227.4,44,225.6,44z"/>
<path d="M259.4,46.2c0,1.5-0.2,2.8-0.7,4.1s-1.1,2.3-2,3.2s-1.9,1.6-3.1,2.1c-1.2,0.5-2.6,0.7-4.1,0.7s-2.8-0.2-4-0.7
	s-2.2-1.2-3.1-2.1c-0.9-0.9-1.5-2-2-3.2s-0.7-2.6-0.7-4.1s0.2-2.9,0.7-4.1c0.5-1.2,1.1-2.3,2-3.2s1.9-1.6,3.1-2
	c1.2-0.5,2.6-0.7,4-0.7c1.5,0,2.8,0.2,4.1,0.7s2.3,1.2,3.1,2.1c0.9,0.9,1.5,2,2,3.2S259.4,44.7,259.4,46.2z M254.4,46.2
	c0-2-0.4-3.6-1.3-4.7s-2.1-1.7-3.6-1.7c-1,0-1.8,0.2-2.5,0.7s-1.3,1.2-1.7,2.2s-0.6,2.1-0.6,3.4c0,1.3,0.2,2.4,0.6,3.4
	c0.4,1,1,1.7,1.7,2.2s1.6,0.8,2.6,0.8c1.5,0,2.7-0.6,3.6-1.7C254,49.7,254.4,48.2,254.4,46.2z"/>
<path d="M281.7,46.2c0,1.5-0.2,2.8-0.7,4.1c-0.5,1.2-1.1,2.3-2,3.2s-1.9,1.6-3.1,2.1s-2.6,0.7-4.1,0.7s-2.8-0.2-4-0.7
	s-2.2-1.2-3.1-2.1s-1.5-2-2-3.2s-0.7-2.6-0.7-4.1s0.2-2.9,0.7-4.1c0.5-1.2,1.1-2.3,2-3.2s1.9-1.6,3.1-2s2.6-0.7,4-0.7
	c1.5,0,2.8,0.2,4.1,0.7s2.3,1.2,3.1,2.1c0.9,0.9,1.5,2,2,3.2S281.7,44.7,281.7,46.2z M276.8,46.2c0-2-0.4-3.6-1.3-4.7
	c-0.9-1.1-2.1-1.7-3.6-1.7c-1,0-1.8,0.2-2.5,0.7s-1.3,1.2-1.7,2.2c-0.4,1-0.6,2.1-0.6,3.4c0,1.3,0.2,2.4,0.6,3.4s1,1.7,1.7,2.2
	s1.6,0.8,2.6,0.8c1.5,0,2.7-0.6,3.6-1.7C276.3,49.7,276.8,48.2,276.8,46.2z"/>
<path d="M297.9,54l-4.4-7.2l-2.7,2.5v3.9c0,1-0.2,1.7-0.7,2.2s-1.1,0.8-1.7,0.8c-0.8,0-1.4-0.3-1.8-0.8s-0.7-1.3-0.7-2.2v-21
	c0-1.1,0.2-1.9,0.6-2.5s1-0.9,1.8-0.9s1.4,0.3,1.8,0.8s0.7,1.3,0.7,2.3v12l5.5-5.8c0.7-0.7,1.2-1.2,1.6-1.5s0.8-0.4,1.3-0.4
	c0.6,0,1.1,0.2,1.5,0.6c0.4,0.4,0.6,0.9,0.6,1.5c0,0.7-0.7,1.7-2,2.9l-2.6,2.4l5.1,7.9c0.4,0.6,0.6,1,0.8,1.3
	c0.2,0.3,0.2,0.6,0.2,0.9c0,0.8-0.2,1.4-0.6,1.9s-1,0.7-1.7,0.7c-0.6,0-1.1-0.2-1.4-0.5S298.5,54.8,297.9,54z"/>
<path d="M321.8,49.8c0,1.4-0.3,2.5-1,3.5s-1.6,1.7-2.9,2.2s-2.9,0.7-4.7,0.7c-1.8,0-3.3-0.3-4.6-0.8s-2.2-1.2-2.8-2
	c-0.6-0.8-0.9-1.6-0.9-2.4c0-0.5,0.2-1,0.6-1.4s0.9-0.6,1.5-0.6c0.5,0,0.9,0.1,1.2,0.4c0.3,0.3,0.5,0.6,0.8,1.1
	c0.5,0.9,1.1,1.5,1.8,2c0.7,0.4,1.7,0.7,2.9,0.7c1,0,1.8-0.2,2.4-0.7c0.6-0.4,0.9-0.9,0.9-1.5c0-0.9-0.3-1.5-1-1.9s-1.7-0.8-3.2-1.1
	c-1.7-0.4-3.1-0.9-4.1-1.3c-1.1-0.5-1.9-1.1-2.6-1.8c-0.6-0.8-1-1.7-1-2.8c0-1,0.3-1.9,0.9-2.8c0.6-0.9,1.5-1.6,2.6-2.1
	s2.5-0.8,4.2-0.8c1.3,0,2.4,0.1,3.4,0.4c1,0.3,1.9,0.6,2.5,1.1c0.7,0.4,1.2,0.9,1.6,1.5s0.5,1.1,0.5,1.6c0,0.6-0.2,1-0.6,1.4
	s-0.9,0.5-1.6,0.5c-0.5,0-0.9-0.1-1.3-0.4c-0.4-0.3-0.8-0.7-1.2-1.3c-0.4-0.5-0.8-0.9-1.3-1.2s-1.2-0.4-2.1-0.4s-1.6,0.2-2.2,0.6
	c-0.6,0.4-0.9,0.9-0.9,1.4s0.2,0.9,0.7,1.3s1,0.6,1.8,0.8c0.7,0.2,1.7,0.5,3,0.8c1.5,0.4,2.8,0.8,3.7,1.3s1.7,1.1,2.2,1.8
	S321.8,48.9,321.8,49.8z"/>
<g>
	<path class="st1" d="M77.5,47.5c-0.7,0-1.2-0.5-1.3-1.2c-0.7-9.2-8.5-16.5-17.8-16.5S41.3,37,40.6,46.3c-0.1,0.7-0.6,1.2-1.3,1.2
		c-0.4,0-0.7-0.2-1-0.4c-0.2-0.3-0.4-0.6-0.3-1c0.8-10.6,9.7-18.9,20.4-18.9S78,35.5,78.8,46.1c0,0.4-0.1,0.7-0.3,1
		C78.2,47.4,77.8,47.5,77.5,47.5z"/>
	<path class="st0" d="M39.3,57.8c-10.6,0-19.6-8.3-20.4-18.9c0-0.4,0.1-0.7,0.3-1c0.2-0.3,0.6-0.4,1-0.4c0.7,0,1.2,0.5,1.3,1.2
		C22.2,48,30,55.2,39.3,55.2S56.3,48,57,38.7c0.1-0.7,0.6-1.2,1.3-1.2c0.4,0,0.7,0.2,1,0.4c0.2,0.3,0.4,0.6,0.3,1
		C58.9,49.5,49.9,57.8,39.3,57.8z"/>
</g>
</svg>
